<svg xmlns="http://www.w3.org/2000/svg" viewBox="0 0 512 512">
  <rect width="512" height="512" rx="96" fill="#151c22"/>
  <rect x="78" y="78" width="356" height="356" rx="68" fill="#24313a"/>
  <path fill="#7dd3a8" d="M277 116v43c39 7 66 29 79 65l-55 22c-9-25-27-38-55-38-13 0-24 3-32 9-8 5-12 13-12 22 0 11 5 19 15 25 10 5 29 11 57 18 35 8 61 20 78 36 17 15 25 36 25 63 0 30-10 54-31 72-20 18-47 29-81 33v43h-42v-43c-49-7-82-35-99-84l58-18c11 31 32 47 64 47 16 0 29-4 38-11 9-8 14-17 14-29 0-13-5-22-15-28-10-7-30-14-59-20-35-8-60-19-76-34-16-14-24-34-24-59 0-28 10-51 29-69 19-18 44-29 74-34v-43h42Z"/>
</svg>
